name new_emg_signals
nRows=83
nColumns=7
 
endheader
time	RGLTMED	RRF	RADDLONG	RST	RTA	RGM
2.0100000000003178	0.926811835151334	0.7700437287133567	0.8341648555501924	0.9033565677054984	0.6865498675035832	0.9275670430180792
2.0200000000003158	0.9262272115649614	0.768934583935702	0.8350712071986699	0.903337304851002	0.6865505037062187	0.925393141846654
2.030000000000321	0.925632152125638	0.7677779022045527	0.8359541490198037	0.9033789183195956	0.6866096443539161	0.9232564305633496
2.0400000000003224	0.9250294379637	0.7665761421927337	0.8368135412695928	0.9034832350230962	0.6867257201581555	0.92116065395129
2.0500000000003205	0.9244218419206168	0.7653318616478672	0.8376493115991762	0.9036518729270014	0.6868970899243654	0.9191094283181452
2.060000000000322	0.9238121183250052	0.7640477067856715	0.8384614520496311	0.9038862369252988	0.687122043898066	0.9171062312768088
2.0700000000003236	0.923202992924968	0.7627264015973203	0.8392500159983086	0.9041875154241912	0.6873988073665319	0.915154391926358
2.080000000000325	0.9225971530076172	0.7613707371103362	0.8400151150674021	0.904556677642313	0.6877255445068131	0.9132570814728372
2.0900000000003303	0.92199723773951	0.7599835606412876	0.8407569160038277	0.9049944716326928	0.6881003624699771	0.9114173043296652
2.1000000000003283	0.9214058287635408	0.7585677650778935	0.8414756375382648	0.905501423029572	0.6885213156899346	0.9096378897370062
2.11000000000033	0.9208254410883012	0.7571262782274425	0.8421715472314123	0.9060778345213591	0.6889864104040604	0.9079214839376916
2.1200000000003314	0.9202585143049508	0.7556620522684411	0.8428449583149503	0.9067237860500732	0.6894936093707977	0.9062705429448384
2.1300000000003294	0.9197074041646928	0.7541780533423488	0.8434962265342433	0.9074391357358472	0.6900408367676647	0.9046873259336564
2.1400000000003345	0.9191743745481834	0.75267725132129	0.8441257469980191	0.9082235215230496	0.6906259832506318	0.9031738892870672
2.1500000000003325	0.9186615898555472	0.7511626097865808	0.844733951038857	0.909076363541947	0.6912469111535305	0.9017320813221152
2.1600000000003376	0.9181711078437568	0.7496370762511779	0.8453213030879018	0.9099968671774245	0.6919014598039466	0.9003635377212913
2.1700000000003357	0.9177048729358396	0.7481035726577737	0.8458882975672742	0.91098402683472	0.6925874509301031	0.8990696776902922
2.1800000000003408	0.9172647100244952	0.7465649861825246	0.8464354558045607	0.9120366303908288	0.6933026941312936	0.8978517008609835
2.1900000000003423	0.9168523187907685	0.7450241603723223	0.8469633229742672	0.9131532643197976	0.6940449923832503	0.896710584955451
2.200000000000344	0.9164692685570084	0.7434838866412269	0.8474724650713283	0.9143323194789044	0.6948121475486825	0.8956470842242793
2.2100000000003455	0.91611699369158	0.7419468961492488	0.847963465921847	0.915571997541577	0.6956019658625292	0.8946617286691347
2.2200000000003435	0.9157967895812912	0.740415852084772	0.8484369242357734	0.9168703180610268	0.6964122633610617	0.8937548240567446
2.2300000000003486	0.9155098091850068	0.7388933423694223	0.8488934507056387	0.9182251261460994	0.6972408712241205	0.8929264527284425
2.24000000000035	0.9152570601794202	0.7373818728026706	0.8493336651551882	0.9196341007282196	0.6980856410010089	0.8921764752061294
2.2500000000003517	0.915039402705361	0.735883860660938	0.8497581937410741	0.921094763395325	0.6989444496922741	0.8915045325926453
2.2600000000003533	0.9148575477197984	0.734401628764546	0.8501676662107015	0.9226044877657468	0.6998152046616061	0.8909100497611343
2.2700000000003584	0.9147120559571206	0.7329374000235664	0.8505627132182375	0.9241605093726571	0.7006958483537072	0.8903922393250117
2.2800000000003564	0.9146033375003122	0.7314932924723528	0.8509439637012508	0.9257599360271268	0.7015843627960321	0.8899501063771093
2.2900000000003615	0.9145316519617092	0.7300713148006894	0.8513120423211271	0.9273997586258697	0.7024787738643044	0.8895824539833893
2.3000000000003595	0.914497109270512	0.7286733623881468	0.851667566972338	0.9290768623670856	0.7033771552950349	0.8892878894137349
2.310000000000361	0.9144996710626576	0.727301213846878	0.8520111463668993	0.930788038335588	0.7042776324323178	0.8890648310894798
2.3200000000003627	0.914539152666594	0.72595652807649	0.8523433777013326	0.9325299954156764	0.7051783857015963	0.8889115162243743
2.3300000000003642	0.9146152256761658	0.7246408418331851	0.8526648444135142	0.934299372488434	0.7060776538083453	0.888826009133008
2.340000000000366	0.9147274211004692	0.7233555678136618	0.8529761140374416	0.9360927508676392	0.7069737366640899	0.8888062101777124
2.3500000000003674	0.9148751330783612	0.7221019932524902	0.8532777361646849	0.9379066669266858	0.7078649980441272	0.8888498653219258
2.360000000000369	0.9150576231433766	0.7208812790297907	0.8535702405227171	0.939737624866839	0.7087498679815001	0.88895457625499
2.3700000000003705	0.915274025022632	0.719694459284044	0.8538541351817756	0.9415821095753596	0.7096268449016973	0.8891178110505339
2.380000000000372	0.9155233499514231	0.7185424415226618	0.8541299049034045	0.9434365995200344	0.7104944975019974	0.8893369153180088
2.3900000000003736	0.9158044924828146	0.7174260072205532	0.8543980096447886	0.9452975796248154	0.7113514663794817	0.8896091238042297
2.4000000000003716	0.916116236769961	0.7163458128945822	0.8546588832330332	0.9471615540684688	0.7121964654117765	0.8899315723989852
2.4100000000003767	0.9164572632965154	0.7153023916400131	0.8549129322228463	0.9490250589455744	0.7130282828950162	0.890301310496179
2.4200000000003783	0.9168261560279258	0.7142961551133383	0.855160534949183	0.9508846747274248	0.7138457824446155	0.8907153136594336
2.43000000000038	0.9172214099540208	0.7133273959450183	0.855402040784588	0.9527370384589644	0.7146479036660031	0.8911704965386877
2.4400000000003814	0.9176414389902448	0.7123962905645118	0.8556377696087455	0.9545788556283402	0.7154336626038116	0.8916637259819554
2.4500000000003865	0.9180845842033184	0.7115029024191417	0.8558680114953512	0.9564069116470588	0.7162021519784619	0.8921918342840328
2.4600000000003845	0.9185491223242996	0.7106471855670716	0.8560930266189476	0.958218082880899	0.7169525412189847	0.8927516325113556
2.470000000000386	0.9190332745101628	0.7098289886230856	0.8563130453819686	0.9600093471744694	0.7176840763001666	0.8933399238398346
2.4800000000003877	0.9195352153124758	0.7090480590339412	0.8565282687596922	0.9617777938141692	0.7183960793911729	0.8939535168395369
2.4900000000003892	0.9200530818094514	0.7083040476580776	0.8567388688586889	0.9635206328767748	0.7190879483226119	0.8945892386374193
2.500000000000391	0.9205849828559196	0.707596513622513	0.8569449896820137	0.9652352039138298	0.7197591558787897	0.8952439478865167
2.5100000000003924	0.921129008404742	0.7069249294282569	0.8571467480923625	0.9669189839266616	0.7204092489222593	0.8959145474674443
2.5200000000003975	0.9216832388521564	0.7062886862742732	0.857344234962489	0.9685695945931136	0.7210378473565356	0.8965979968463197
2.5300000000003955	0.9222457543580328	0.7056870995693076	0.8575375165003041	0.9701848087161652	0.7216446429317742	0.8972913240117508
2.5400000000004006	0.9228146440911504	0.7051194145999198	0.8577266357344601	0.9717625558750972	0.722229397896377	0.8979916369126711
2.550000000000402	0.92338801534765	0.7045848123223419	0.8579116141442086	0.9733009272699784	0.7227919434962655	0.8986961343193477
2.5600000000004	0.9239640024904248	0.7040824152443181	0.8580924534160165	0.9747981797557914	0.72333217832316	0.899402116031991
2.5700000000004017	0.9245407756558676	0.7036112933619523	0.858269137308848	0.9762527390658732	0.7238500665130536	0.9001069923648396
2.5800000000003998	0.9251165491738478	0.70317047011591	0.8584416336105882	0.9776632022259628	0.7243456357960341	0.9008082928373516
2.590000000000405	0.925689589645332	0.7027589283321797	0.858609896168878	0.9790283391625236	0.7248189753983503	0.9015036740064838
2.6000000000004064	0.9262582236213908	0.7023756161146231	0.8587738669801469	0.980347093511354	0.7252702337978367	0.9021909263759738
2.610000000000408	0.9268208448268186	0.7020194526582155	0.8589334783215398	0.9816185826356932	0.7256996163343172	0.9028679803231776
2.6200000000004096	0.9273759208718731	0.7016893339529977	0.8590886549109589	0.9828420968666176	0.7261073826772652	0.9035329109957456
2.630000000000411	0.9279219993982392	0.7013841383489826	0.859239316081052	0.9840170979827922	0.7264938441539983	0.9041839421518868
2.6400000000004127	0.9284577136104591	0.7011027319529278	0.8593853779518783	0.9851432169490684	0.7268593609421545	0.9048194489459987
2.6500000000004142	0.9289817871530756	0.7008439738306178	0.8595267555855435	0.98622025093483	0.7272043391320503	0.9054379596873332
2.6600000000004123	0.9294930383052302	0.700606720993421	0.8596633651047032	0.9872481596334812	0.727529227667225	0.906038156616142
2.6700000000004174	0.9299903834763474	0.7003898331530081	0.8597951257558719	0.9882270609042212	0.7278345151751299	0.9066188757491744
2.6800000000004154	0.9304728399990172	0.7001921772324953	0.8599219618984647	0.989157225759454	0.7281207267035553	0.9071791058484264
2.6900000000004205	0.9309395282266558	0.7000126316247633	0.8600438049009221	0.9900390727256791	0.7283884203804984	0.9077179865667612
2.700000000000422	0.931389672953081	0.699850090191349	0.8601605949255282	0.9908731616133885	0.7286381840163734	0.9082348058230072
2.7100000000004236	0.9318226041764912	0.6997034659980647	0.860272282584669	0.9916601867397562	0.7288706316671631	0.9087289964586164
2.720000000000425	0.9322377572337398	0.6995716947856226	0.860378830451162	0.9924009696550276	0.7290864001767949	0.9092001322272256
2.7300000000004268	0.9326346723310616	0.6994537381742465	0.8604802144059331	0.9930964514278235	0.7292861457166682	0.9096479231692944
2.7400000000004283	0.9330129934978204	0.6993485866010632	0.86057642480559	0.9937476845464354	0.7294705403402825	0.9100722104244252
2.75000000000043	0.9333724669894032	0.6992552619884029	0.8606674674528784	0.9943558244925434	0.729640268570719	0.910472960534726
2.7600000000004314	0.9337129391637312	0.6991728201410238	0.8607533643542912	0.994922121042358	0.7297960240380307	0.9108502592926084
2.770000000000433	0.9340343538549476	0.6991003528712832	0.8608341542524626	0.9954479093479468	0.7299385061825726	0.9112043051858804
2.780000000000438	0.9343367492669926	0.6990369898535053	0.8609098929276544	0.9959346008503106	0.7300684170392818	0.9115354024920224
2.790000000000436	0.9346202544093406	0.6989819002109707	0.8609806532702186	0.9963836740745424	0.7301864581167569	0.911843954072436
2.8000000000004412	0.934885085097838	0.698934293840593	0.8610465251329522	0.9967966653567988	0.730293327383758	0.9121304539161892
2.8100000000004393	0.9351315395441174	0.6988934224802213	0.8611076149758412	0.9971751595513908	0.7303897163752593	0.9123954794808083
2.820000000000441	0.935359993557635	0.6988585805223086	0.8611640453161389	0.9975207807645128	0.7304763074295137	0.9126396838754212
2.8300000000004424	0.9355708953852668	0.6988291055758363	0.8612159539955299	0.9978351831582912	0.7305537710673046	0.9128637879292704
